<mxfile host="Electron" agent="Mozilla/5.0 (X11; Linux x86_64) AppleWebKit/537.36 (KHTML, like Gecko) draw.io/26.0.9 Chrome/128.0.6613.186 Electron/32.3.0 Safari/537.36" version="26.0.9">
  <diagram name="PÃ¡gina-1" id="ZhjFYDg4kDw-2ScRDYlZ">
    <mxGraphModel dx="989" dy="574" grid="1" gridSize="10" guides="1" tooltips="1" connect="1" arrows="1" fold="1" page="1" pageScale="1" pageWidth="827" pageHeight="1169" math="0" shadow="0">
      <root>
        <mxCell id="0" />
        <mxCell id="1" parent="0" />
        <mxCell id="jXGBZtoQWdus-dMjmi3M-1" value="" style="rounded=0;whiteSpace=wrap;html=1;dashed=1;" vertex="1" parent="1">
          <mxGeometry x="30" y="40" width="780" height="490" as="geometry" />
        </mxCell>
        <mxCell id="f660KYOJlbldad9Sg0Wb-1" value="&amp;lt;&amp;lt;objeto de valor&amp;gt;&amp;gt;&lt;br&gt;&lt;font style=&quot;font-size: 14px;&quot;&gt;Telefone&lt;/font&gt;" style="swimlane;fontStyle=0;childLayout=stackLayout;horizontal=1;startSize=40;fillColor=#647687;horizontalStack=0;resizeParent=1;resizeParentMax=0;resizeLast=0;collapsible=1;marginBottom=0;whiteSpace=wrap;html=1;fontColor=#ffffff;strokeColor=#314354;" parent="1" vertex="1">
          <mxGeometry x="231" y="50" width="140" height="92" as="geometry" />
        </mxCell>
        <mxCell id="f660KYOJlbldad9Sg0Wb-2" value="- ddd: String" style="text;strokeColor=none;fillColor=none;align=left;verticalAlign=top;spacingLeft=4;spacingRight=4;overflow=hidden;rotatable=0;points=[[0,0.5],[1,0.5]];portConstraint=eastwest;whiteSpace=wrap;html=1;" parent="f660KYOJlbldad9Sg0Wb-1" vertex="1">
          <mxGeometry y="40" width="140" height="26" as="geometry" />
        </mxCell>
        <mxCell id="f660KYOJlbldad9Sg0Wb-3" value="- numero: String" style="text;strokeColor=none;fillColor=none;align=left;verticalAlign=top;spacingLeft=4;spacingRight=4;overflow=hidden;rotatable=0;points=[[0,0.5],[1,0.5]];portConstraint=eastwest;whiteSpace=wrap;html=1;" parent="f660KYOJlbldad9Sg0Wb-1" vertex="1">
          <mxGeometry y="66" width="140" height="26" as="geometry" />
        </mxCell>
        <mxCell id="f660KYOJlbldad9Sg0Wb-4" value="&lt;font style=&quot;font-size: 14px;&quot;&gt;&lt;span style=&quot;font-size: 12px;&quot;&gt;&amp;lt;&amp;lt;objeto de valor&amp;gt;&amp;gt;&lt;/span&gt;&lt;br style=&quot;font-size: 12px;&quot;&gt;Ausencia&lt;/font&gt;" style="swimlane;fontStyle=0;childLayout=stackLayout;horizontal=1;startSize=40;fillColor=#647687;horizontalStack=0;resizeParent=1;resizeParentMax=0;resizeLast=0;collapsible=1;marginBottom=0;whiteSpace=wrap;html=1;fontColor=#ffffff;strokeColor=#314354;" parent="1" vertex="1">
          <mxGeometry x="660" y="60" width="140" height="144" as="geometry">
            <mxRectangle x="50" y="430" width="90" height="30" as="alternateBounds" />
          </mxGeometry>
        </mxCell>
        <mxCell id="f660KYOJlbldad9Sg0Wb-6" value="- dataInicio: Date" style="text;strokeColor=none;fillColor=none;align=left;verticalAlign=top;spacingLeft=4;spacingRight=4;overflow=hidden;rotatable=0;points=[[0,0.5],[1,0.5]];portConstraint=eastwest;whiteSpace=wrap;html=1;" parent="f660KYOJlbldad9Sg0Wb-4" vertex="1">
          <mxGeometry y="40" width="140" height="26" as="geometry" />
        </mxCell>
        <mxCell id="f660KYOJlbldad9Sg0Wb-7" value="- dataFim: Date" style="text;strokeColor=none;fillColor=none;align=left;verticalAlign=top;spacingLeft=4;spacingRight=4;overflow=hidden;rotatable=0;points=[[0,0.5],[1,0.5]];portConstraint=eastwest;whiteSpace=wrap;html=1;" parent="f660KYOJlbldad9Sg0Wb-4" vertex="1">
          <mxGeometry y="66" width="140" height="26" as="geometry" />
        </mxCell>
        <mxCell id="f660KYOJlbldad9Sg0Wb-8" value="- motivo: String" style="text;strokeColor=none;fillColor=none;align=left;verticalAlign=top;spacingLeft=4;spacingRight=4;overflow=hidden;rotatable=0;points=[[0,0.5],[1,0.5]];portConstraint=eastwest;whiteSpace=wrap;html=1;" parent="f660KYOJlbldad9Sg0Wb-4" vertex="1">
          <mxGeometry y="92" width="140" height="26" as="geometry" />
        </mxCell>
        <mxCell id="f660KYOJlbldad9Sg0Wb-9" value="- descricao: String" style="text;strokeColor=none;fillColor=none;align=left;verticalAlign=top;spacingLeft=4;spacingRight=4;overflow=hidden;rotatable=0;points=[[0,0.5],[1,0.5]];portConstraint=eastwest;whiteSpace=wrap;html=1;" parent="f660KYOJlbldad9Sg0Wb-4" vertex="1">
          <mxGeometry y="118" width="140" height="26" as="geometry" />
        </mxCell>
        <mxCell id="f660KYOJlbldad9Sg0Wb-10" value="&amp;lt;&amp;lt;objeto de valor&amp;gt;&amp;gt;&lt;br&gt;&lt;font style=&quot;font-size: 14px;&quot;&gt;Endereco&lt;/font&gt;" style="swimlane;fontStyle=0;childLayout=stackLayout;horizontal=1;startSize=40;fillColor=#647687;horizontalStack=0;resizeParent=1;resizeParentMax=0;resizeLast=0;collapsible=1;marginBottom=0;whiteSpace=wrap;html=1;fontColor=#ffffff;strokeColor=#314354;" parent="1" vertex="1">
          <mxGeometry x="231" y="160" width="140" height="170" as="geometry" />
        </mxCell>
        <mxCell id="f660KYOJlbldad9Sg0Wb-11" value="- logradouro: String" style="text;strokeColor=none;fillColor=none;align=left;verticalAlign=top;spacingLeft=4;spacingRight=4;overflow=hidden;rotatable=0;points=[[0,0.5],[1,0.5]];portConstraint=eastwest;whiteSpace=wrap;html=1;" parent="f660KYOJlbldad9Sg0Wb-10" vertex="1">
          <mxGeometry y="40" width="140" height="26" as="geometry" />
        </mxCell>
        <mxCell id="f660KYOJlbldad9Sg0Wb-12" value="- numero: String" style="text;strokeColor=none;fillColor=none;align=left;verticalAlign=top;spacingLeft=4;spacingRight=4;overflow=hidden;rotatable=0;points=[[0,0.5],[1,0.5]];portConstraint=eastwest;whiteSpace=wrap;html=1;" parent="f660KYOJlbldad9Sg0Wb-10" vertex="1">
          <mxGeometry y="66" width="140" height="26" as="geometry" />
        </mxCell>
        <mxCell id="f660KYOJlbldad9Sg0Wb-13" value="- complemento: String" style="text;strokeColor=none;fillColor=none;align=left;verticalAlign=top;spacingLeft=4;spacingRight=4;overflow=hidden;rotatable=0;points=[[0,0.5],[1,0.5]];portConstraint=eastwest;whiteSpace=wrap;html=1;" parent="f660KYOJlbldad9Sg0Wb-10" vertex="1">
          <mxGeometry y="92" width="140" height="26" as="geometry" />
        </mxCell>
        <mxCell id="f660KYOJlbldad9Sg0Wb-14" value="- bairro: String" style="text;strokeColor=none;fillColor=none;align=left;verticalAlign=top;spacingLeft=4;spacingRight=4;overflow=hidden;rotatable=0;points=[[0,0.5],[1,0.5]];portConstraint=eastwest;whiteSpace=wrap;html=1;" parent="f660KYOJlbldad9Sg0Wb-10" vertex="1">
          <mxGeometry y="118" width="140" height="26" as="geometry" />
        </mxCell>
        <mxCell id="f660KYOJlbldad9Sg0Wb-15" value="- cep: String" style="text;strokeColor=none;fillColor=none;align=left;verticalAlign=top;spacingLeft=4;spacingRight=4;overflow=hidden;rotatable=0;points=[[0,0.5],[1,0.5]];portConstraint=eastwest;whiteSpace=wrap;html=1;" parent="f660KYOJlbldad9Sg0Wb-10" vertex="1">
          <mxGeometry y="144" width="140" height="26" as="geometry" />
        </mxCell>
        <mxCell id="f660KYOJlbldad9Sg0Wb-16" value="&lt;div&gt;&lt;div&gt;&lt;div&gt;&amp;lt;&amp;lt;nucleo compartilhado&amp;gt;&amp;gt;&lt;/div&gt;&lt;/div&gt;&lt;/div&gt;&lt;div&gt;&amp;lt;&amp;lt;entidade&amp;gt;&amp;gt;&lt;/div&gt;&lt;div&gt;&lt;font style=&quot;font-size: 14px;&quot;&gt;Militar&lt;/font&gt;&lt;/div&gt;" style="swimlane;fontStyle=0;childLayout=stackLayout;horizontal=1;startSize=47;fillColor=#647687;horizontalStack=0;resizeParent=1;resizeParentMax=0;resizeLast=0;collapsible=1;marginBottom=0;whiteSpace=wrap;html=1;fontColor=#ffffff;strokeColor=#314354;" parent="1" vertex="1">
          <mxGeometry x="454" y="173" width="150" height="281" as="geometry" />
        </mxCell>
        <mxCell id="f660KYOJlbldad9Sg0Wb-17" value="- matricula: String &amp;lt;&amp;lt;id&amp;gt;&amp;gt;" style="text;strokeColor=none;fillColor=none;align=left;verticalAlign=top;spacingLeft=4;spacingRight=4;overflow=hidden;rotatable=0;points=[[0,0.5],[1,0.5]];portConstraint=eastwest;whiteSpace=wrap;html=1;" parent="f660KYOJlbldad9Sg0Wb-16" vertex="1">
          <mxGeometry y="47" width="150" height="26" as="geometry" />
        </mxCell>
        <mxCell id="rbn2o9lMwaBEU-AvWfOB-3" value="- cpf: String" style="text;strokeColor=none;fillColor=none;align=left;verticalAlign=top;spacingLeft=4;spacingRight=4;overflow=hidden;rotatable=0;points=[[0,0.5],[1,0.5]];portConstraint=eastwest;whiteSpace=wrap;html=1;" parent="f660KYOJlbldad9Sg0Wb-16" vertex="1">
          <mxGeometry y="73" width="150" height="26" as="geometry" />
        </mxCell>
        <mxCell id="f660KYOJlbldad9Sg0Wb-18" value="- nomeCompleto: String" style="text;strokeColor=none;fillColor=none;align=left;verticalAlign=top;spacingLeft=4;spacingRight=4;overflow=hidden;rotatable=0;points=[[0,0.5],[1,0.5]];portConstraint=eastwest;whiteSpace=wrap;html=1;" parent="f660KYOJlbldad9Sg0Wb-16" vertex="1">
          <mxGeometry y="99" width="150" height="26" as="geometry" />
        </mxCell>
        <mxCell id="rbn2o9lMwaBEU-AvWfOB-2" value="- nomePaz: String" style="text;strokeColor=none;fillColor=none;align=left;verticalAlign=top;spacingLeft=4;spacingRight=4;overflow=hidden;rotatable=0;points=[[0,0.5],[1,0.5]];portConstraint=eastwest;whiteSpace=wrap;html=1;" parent="f660KYOJlbldad9Sg0Wb-16" vertex="1">
          <mxGeometry y="125" width="150" height="26" as="geometry" />
        </mxCell>
        <mxCell id="f660KYOJlbldad9Sg0Wb-19" value="- nascimento: Date" style="text;strokeColor=none;fillColor=none;align=left;verticalAlign=top;spacingLeft=4;spacingRight=4;overflow=hidden;rotatable=0;points=[[0,0.5],[1,0.5]];portConstraint=eastwest;whiteSpace=wrap;html=1;" parent="f660KYOJlbldad9Sg0Wb-16" vertex="1">
          <mxGeometry y="151" width="150" height="26" as="geometry" />
        </mxCell>
        <mxCell id="f660KYOJlbldad9Sg0Wb-20" value="- antiguidade: Integer" style="text;strokeColor=none;fillColor=none;align=left;verticalAlign=top;spacingLeft=4;spacingRight=4;overflow=hidden;rotatable=0;points=[[0,0.5],[1,0.5]];portConstraint=eastwest;whiteSpace=wrap;html=1;" parent="f660KYOJlbldad9Sg0Wb-16" vertex="1">
          <mxGeometry y="177" width="150" height="26" as="geometry" />
        </mxCell>
        <mxCell id="f660KYOJlbldad9Sg0Wb-21" value="- folga: Integer" style="text;strokeColor=none;fillColor=none;align=left;verticalAlign=top;spacingLeft=4;spacingRight=4;overflow=hidden;rotatable=0;points=[[0,0.5],[1,0.5]];portConstraint=eastwest;whiteSpace=wrap;html=1;" parent="f660KYOJlbldad9Sg0Wb-16" vertex="1">
          <mxGeometry y="203" width="150" height="26" as="geometry" />
        </mxCell>
        <mxCell id="f660KYOJlbldad9Sg0Wb-22" value="- escalavel: Boolean" style="text;strokeColor=none;fillColor=none;align=left;verticalAlign=top;spacingLeft=4;spacingRight=4;overflow=hidden;rotatable=0;points=[[0,0.5],[1,0.5]];portConstraint=eastwest;whiteSpace=wrap;html=1;" parent="f660KYOJlbldad9Sg0Wb-16" vertex="1">
          <mxGeometry y="229" width="150" height="26" as="geometry" />
        </mxCell>
        <mxCell id="f660KYOJlbldad9Sg0Wb-23" value="- cov: Boolean" style="text;strokeColor=none;fillColor=none;align=left;verticalAlign=top;spacingLeft=4;spacingRight=4;overflow=hidden;rotatable=0;points=[[0,0.5],[1,0.5]];portConstraint=eastwest;whiteSpace=wrap;html=1;" parent="f660KYOJlbldad9Sg0Wb-16" vertex="1">
          <mxGeometry y="255" width="150" height="26" as="geometry" />
        </mxCell>
        <mxCell id="f660KYOJlbldad9Sg0Wb-24" value="" style="endArrow=none;html=1;endSize=12;startArrow=diamondThin;startSize=14;startFill=1;edgeStyle=orthogonalEdgeStyle;rounded=0;exitX=1;exitY=0.5;exitDx=0;exitDy=0;entryX=0;entryY=0.5;entryDx=0;entryDy=0;" parent="1" source="f660KYOJlbldad9Sg0Wb-17" target="f660KYOJlbldad9Sg0Wb-7" edge="1">
          <mxGeometry relative="1" as="geometry">
            <mxPoint x="605" y="360" as="sourcePoint" />
            <mxPoint x="451" y="526" as="targetPoint" />
          </mxGeometry>
        </mxCell>
        <mxCell id="f660KYOJlbldad9Sg0Wb-25" value="1" style="edgeLabel;resizable=0;html=1;align=left;verticalAlign=top;" parent="f660KYOJlbldad9Sg0Wb-24" connectable="0" vertex="1">
          <mxGeometry x="-1" relative="1" as="geometry">
            <mxPoint x="13" y="-21" as="offset" />
          </mxGeometry>
        </mxCell>
        <mxCell id="f660KYOJlbldad9Sg0Wb-26" value="&lt;div&gt;0..n&lt;/div&gt;" style="edgeLabel;resizable=0;html=1;align=right;verticalAlign=top;" parent="f660KYOJlbldad9Sg0Wb-24" connectable="0" vertex="1">
          <mxGeometry x="1" relative="1" as="geometry">
            <mxPoint x="-2" y="-24" as="offset" />
          </mxGeometry>
        </mxCell>
        <mxCell id="f660KYOJlbldad9Sg0Wb-27" value="" style="endArrow=none;html=1;endSize=12;startArrow=diamondThin;startSize=14;startFill=1;edgeStyle=orthogonalEdgeStyle;rounded=0;exitX=0;exitY=0.5;exitDx=0;exitDy=0;entryX=1;entryY=0.5;entryDx=0;entryDy=0;" parent="1" source="f660KYOJlbldad9Sg0Wb-19" target="f660KYOJlbldad9Sg0Wb-14" edge="1">
          <mxGeometry relative="1" as="geometry">
            <mxPoint x="465" y="263" as="sourcePoint" />
            <mxPoint x="381" y="465" as="targetPoint" />
          </mxGeometry>
        </mxCell>
        <mxCell id="f660KYOJlbldad9Sg0Wb-28" value="1..n" style="edgeLabel;resizable=0;html=1;align=left;verticalAlign=top;" parent="f660KYOJlbldad9Sg0Wb-27" connectable="0" vertex="1">
          <mxGeometry x="-1" relative="1" as="geometry">
            <mxPoint x="-36" y="-23" as="offset" />
          </mxGeometry>
        </mxCell>
        <mxCell id="f660KYOJlbldad9Sg0Wb-29" value="1" style="edgeLabel;resizable=0;html=1;align=right;verticalAlign=top;" parent="f660KYOJlbldad9Sg0Wb-27" connectable="0" vertex="1">
          <mxGeometry x="1" relative="1" as="geometry">
            <mxPoint x="11" y="-23" as="offset" />
          </mxGeometry>
        </mxCell>
        <mxCell id="f660KYOJlbldad9Sg0Wb-30" value="&amp;lt;&amp;lt;objeto de valor&amp;gt;&amp;gt;&lt;br&gt;&lt;font style=&quot;font-size: 14px;&quot;&gt;Email&lt;/font&gt;" style="swimlane;fontStyle=0;childLayout=stackLayout;horizontal=1;startSize=40;fillColor=#647687;horizontalStack=0;resizeParent=1;resizeParentMax=0;resizeLast=0;collapsible=1;marginBottom=0;whiteSpace=wrap;html=1;fontColor=#ffffff;strokeColor=#314354;" parent="1" vertex="1">
          <mxGeometry x="459" y="50" width="140" height="66" as="geometry">
            <mxRectangle x="344" y="100" width="70" height="30" as="alternateBounds" />
          </mxGeometry>
        </mxCell>
        <mxCell id="f660KYOJlbldad9Sg0Wb-31" value="- email: String" style="text;strokeColor=none;fillColor=none;align=left;verticalAlign=top;spacingLeft=4;spacingRight=4;overflow=hidden;rotatable=0;points=[[0,0.5],[1,0.5]];portConstraint=eastwest;whiteSpace=wrap;html=1;" parent="f660KYOJlbldad9Sg0Wb-30" vertex="1">
          <mxGeometry y="40" width="140" height="26" as="geometry" />
        </mxCell>
        <mxCell id="f660KYOJlbldad9Sg0Wb-32" value="" style="endArrow=none;html=1;endSize=12;startArrow=diamondThin;startSize=14;startFill=1;edgeStyle=orthogonalEdgeStyle;rounded=0;exitX=0.5;exitY=0;exitDx=0;exitDy=0;entryX=0.5;entryY=1;entryDx=0;entryDy=0;" parent="1" source="f660KYOJlbldad9Sg0Wb-16" target="f660KYOJlbldad9Sg0Wb-30" edge="1">
          <mxGeometry relative="1" as="geometry">
            <mxPoint x="483" y="150" as="sourcePoint" />
            <mxPoint x="329" y="150" as="targetPoint" />
          </mxGeometry>
        </mxCell>
        <mxCell id="f660KYOJlbldad9Sg0Wb-33" value="1" style="edgeLabel;resizable=0;html=1;align=left;verticalAlign=top;" parent="f660KYOJlbldad9Sg0Wb-32" connectable="0" vertex="1">
          <mxGeometry x="-1" relative="1" as="geometry">
            <mxPoint x="-14" y="-32" as="offset" />
          </mxGeometry>
        </mxCell>
        <mxCell id="f660KYOJlbldad9Sg0Wb-34" value="&lt;div&gt;1..n&lt;/div&gt;" style="edgeLabel;resizable=0;html=1;align=right;verticalAlign=top;" parent="f660KYOJlbldad9Sg0Wb-32" connectable="0" vertex="1">
          <mxGeometry x="1" relative="1" as="geometry">
            <mxPoint x="-4" y="-2" as="offset" />
          </mxGeometry>
        </mxCell>
        <mxCell id="f660KYOJlbldad9Sg0Wb-35" value="" style="endArrow=none;html=1;endSize=12;startArrow=diamondThin;startSize=14;startFill=1;edgeStyle=orthogonalEdgeStyle;rounded=0;exitX=0;exitY=0.5;exitDx=0;exitDy=0;entryX=1;entryY=0.5;entryDx=0;entryDy=0;" parent="1" source="rbn2o9lMwaBEU-AvWfOB-3" target="f660KYOJlbldad9Sg0Wb-3" edge="1">
          <mxGeometry relative="1" as="geometry">
            <mxPoint x="431" y="172" as="sourcePoint" />
            <mxPoint x="431" y="112" as="targetPoint" />
          </mxGeometry>
        </mxCell>
        <mxCell id="f660KYOJlbldad9Sg0Wb-36" value="1" style="edgeLabel;resizable=0;html=1;align=left;verticalAlign=top;" parent="f660KYOJlbldad9Sg0Wb-35" connectable="0" vertex="1">
          <mxGeometry x="-1" relative="1" as="geometry">
            <mxPoint x="-24" y="-24" as="offset" />
          </mxGeometry>
        </mxCell>
        <mxCell id="f660KYOJlbldad9Sg0Wb-37" value="&lt;div&gt;1..n&lt;/div&gt;" style="edgeLabel;resizable=0;html=1;align=right;verticalAlign=top;" parent="f660KYOJlbldad9Sg0Wb-35" connectable="0" vertex="1">
          <mxGeometry x="1" relative="1" as="geometry">
            <mxPoint x="23" y="-23" as="offset" />
          </mxGeometry>
        </mxCell>
        <mxCell id="f660KYOJlbldad9Sg0Wb-38" value="&amp;lt;&amp;lt;objeto de valor&amp;gt;&amp;gt;&lt;br&gt;&amp;lt;&amp;lt;enum&amp;gt;&amp;gt;&lt;br&gt;&lt;font style=&quot;font-size: 14px;&quot;&gt;Patente&lt;/font&gt;" style="swimlane;fontStyle=0;childLayout=stackLayout;horizontal=1;startSize=50;fillColor=#647687;horizontalStack=0;resizeParent=1;resizeParentMax=0;resizeLast=0;collapsible=1;marginBottom=0;whiteSpace=wrap;html=1;fontColor=#ffffff;strokeColor=#314354;" parent="1" vertex="1">
          <mxGeometry x="660" y="337" width="140" height="180" as="geometry">
            <mxRectangle x="50" y="430" width="90" height="30" as="alternateBounds" />
          </mxGeometry>
        </mxCell>
        <mxCell id="f660KYOJlbldad9Sg0Wb-39" value="- TEN: Enum" style="text;strokeColor=none;fillColor=none;align=left;verticalAlign=top;spacingLeft=4;spacingRight=4;overflow=hidden;rotatable=0;points=[[0,0.5],[1,0.5]];portConstraint=eastwest;whiteSpace=wrap;html=1;" parent="f660KYOJlbldad9Sg0Wb-38" vertex="1">
          <mxGeometry y="50" width="140" height="26" as="geometry" />
        </mxCell>
        <mxCell id="f660KYOJlbldad9Sg0Wb-40" value="- SUBTEN: Enum" style="text;strokeColor=none;fillColor=none;align=left;verticalAlign=top;spacingLeft=4;spacingRight=4;overflow=hidden;rotatable=0;points=[[0,0.5],[1,0.5]];portConstraint=eastwest;whiteSpace=wrap;html=1;" parent="f660KYOJlbldad9Sg0Wb-38" vertex="1">
          <mxGeometry y="76" width="140" height="26" as="geometry" />
        </mxCell>
        <mxCell id="f660KYOJlbldad9Sg0Wb-41" value="- SGT: Enum" style="text;strokeColor=none;fillColor=none;align=left;verticalAlign=top;spacingLeft=4;spacingRight=4;overflow=hidden;rotatable=0;points=[[0,0.5],[1,0.5]];portConstraint=eastwest;whiteSpace=wrap;html=1;" parent="f660KYOJlbldad9Sg0Wb-38" vertex="1">
          <mxGeometry y="102" width="140" height="26" as="geometry" />
        </mxCell>
        <mxCell id="f660KYOJlbldad9Sg0Wb-42" value="- CB: Enum" style="text;strokeColor=none;fillColor=none;align=left;verticalAlign=top;spacingLeft=4;spacingRight=4;overflow=hidden;rotatable=0;points=[[0,0.5],[1,0.5]];portConstraint=eastwest;whiteSpace=wrap;html=1;" parent="f660KYOJlbldad9Sg0Wb-38" vertex="1">
          <mxGeometry y="128" width="140" height="26" as="geometry" />
        </mxCell>
        <mxCell id="f660KYOJlbldad9Sg0Wb-43" value="- SD: Enum" style="text;strokeColor=none;fillColor=none;align=left;verticalAlign=top;spacingLeft=4;spacingRight=4;overflow=hidden;rotatable=0;points=[[0,0.5],[1,0.5]];portConstraint=eastwest;whiteSpace=wrap;html=1;" parent="f660KYOJlbldad9Sg0Wb-38" vertex="1">
          <mxGeometry y="154" width="140" height="26" as="geometry" />
        </mxCell>
        <mxCell id="f660KYOJlbldad9Sg0Wb-44" value="" style="endArrow=none;html=1;endSize=12;startArrow=diamondThin;startSize=14;startFill=0;edgeStyle=orthogonalEdgeStyle;rounded=0;exitX=1;exitY=0.75;exitDx=0;exitDy=0;entryX=0;entryY=0.5;entryDx=0;entryDy=0;" parent="1" source="f660KYOJlbldad9Sg0Wb-16" target="f660KYOJlbldad9Sg0Wb-41" edge="1">
          <mxGeometry relative="1" as="geometry">
            <mxPoint x="785" y="360" as="sourcePoint" />
            <mxPoint x="691" y="360" as="targetPoint" />
          </mxGeometry>
        </mxCell>
        <mxCell id="f660KYOJlbldad9Sg0Wb-45" value="1..n" style="edgeLabel;resizable=0;html=1;align=left;verticalAlign=top;" parent="f660KYOJlbldad9Sg0Wb-44" connectable="0" vertex="1">
          <mxGeometry x="-1" relative="1" as="geometry">
            <mxPoint x="6" y="-25" as="offset" />
          </mxGeometry>
        </mxCell>
        <mxCell id="f660KYOJlbldad9Sg0Wb-46" value="1" style="edgeLabel;resizable=0;html=1;align=right;verticalAlign=top;" parent="f660KYOJlbldad9Sg0Wb-44" connectable="0" vertex="1">
          <mxGeometry x="1" relative="1" as="geometry">
            <mxPoint x="-3" y="-23" as="offset" />
          </mxGeometry>
        </mxCell>
        <mxCell id="f660KYOJlbldad9Sg0Wb-47" value="&amp;lt;&amp;lt;objeto de valor&amp;gt;&amp;gt;&lt;br&gt;&lt;font style=&quot;font-size: 14px;&quot;&gt;Municipio&lt;/font&gt;" style="swimlane;fontStyle=0;childLayout=stackLayout;horizontal=1;startSize=44;fillColor=#647687;horizontalStack=0;resizeParent=1;resizeParentMax=0;resizeLast=0;collapsible=1;marginBottom=0;whiteSpace=wrap;html=1;fontColor=#ffffff;strokeColor=#314354;" parent="1" vertex="1">
          <mxGeometry x="44" y="160" width="140" height="70" as="geometry" />
        </mxCell>
        <mxCell id="f660KYOJlbldad9Sg0Wb-48" value="- nome: String" style="text;strokeColor=none;fillColor=none;align=left;verticalAlign=top;spacingLeft=4;spacingRight=4;overflow=hidden;rotatable=0;points=[[0,0.5],[1,0.5]];portConstraint=eastwest;whiteSpace=wrap;html=1;" parent="f660KYOJlbldad9Sg0Wb-47" vertex="1">
          <mxGeometry y="44" width="140" height="26" as="geometry" />
        </mxCell>
        <mxCell id="f660KYOJlbldad9Sg0Wb-49" value="&amp;lt;&amp;lt;objeto de valor&amp;gt;&amp;gt;&lt;br&gt;&amp;lt;&amp;lt;enum&amp;gt;&amp;gt;&lt;br&gt;&lt;font style=&quot;font-size: 14px;&quot;&gt;Uf&lt;/font&gt;" style="swimlane;fontStyle=0;childLayout=stackLayout;horizontal=1;startSize=50;fillColor=#647687;horizontalStack=0;resizeParent=1;resizeParentMax=0;resizeLast=0;collapsible=1;marginBottom=0;whiteSpace=wrap;html=1;fontColor=#ffffff;strokeColor=#314354;" parent="1" vertex="1">
          <mxGeometry x="44" y="350" width="140" height="154" as="geometry" />
        </mxCell>
        <mxCell id="f660KYOJlbldad9Sg0Wb-50" value="&lt;div&gt;- CE: Enum&lt;/div&gt;" style="text;strokeColor=none;fillColor=none;align=left;verticalAlign=top;spacingLeft=4;spacingRight=4;overflow=hidden;rotatable=0;points=[[0,0.5],[1,0.5]];portConstraint=eastwest;whiteSpace=wrap;html=1;" parent="f660KYOJlbldad9Sg0Wb-49" vertex="1">
          <mxGeometry y="50" width="140" height="26" as="geometry" />
        </mxCell>
        <mxCell id="f660KYOJlbldad9Sg0Wb-51" value="&lt;div&gt;- RN: Enum&lt;/div&gt;" style="text;strokeColor=none;fillColor=none;align=left;verticalAlign=top;spacingLeft=4;spacingRight=4;overflow=hidden;rotatable=0;points=[[0,0.5],[1,0.5]];portConstraint=eastwest;whiteSpace=wrap;html=1;" parent="f660KYOJlbldad9Sg0Wb-49" vertex="1">
          <mxGeometry y="76" width="140" height="26" as="geometry" />
        </mxCell>
        <mxCell id="f660KYOJlbldad9Sg0Wb-52" value="&lt;div&gt;- PE: Enum&lt;/div&gt;" style="text;strokeColor=none;fillColor=none;align=left;verticalAlign=top;spacingLeft=4;spacingRight=4;overflow=hidden;rotatable=0;points=[[0,0.5],[1,0.5]];portConstraint=eastwest;whiteSpace=wrap;html=1;" parent="f660KYOJlbldad9Sg0Wb-49" vertex="1">
          <mxGeometry y="102" width="140" height="26" as="geometry" />
        </mxCell>
        <mxCell id="f660KYOJlbldad9Sg0Wb-53" value="&lt;div align=&quot;center&quot;&gt;...&lt;/div&gt;" style="text;strokeColor=none;fillColor=none;align=center;verticalAlign=top;spacingLeft=4;spacingRight=4;overflow=hidden;rotatable=0;points=[[0,0.5],[1,0.5]];portConstraint=eastwest;whiteSpace=wrap;html=1;" parent="f660KYOJlbldad9Sg0Wb-49" vertex="1">
          <mxGeometry y="128" width="140" height="26" as="geometry" />
        </mxCell>
        <mxCell id="f660KYOJlbldad9Sg0Wb-54" value="" style="endArrow=none;html=1;endSize=12;startArrow=diamondThin;startSize=14;startFill=0;edgeStyle=orthogonalEdgeStyle;rounded=0;exitX=0;exitY=0.5;exitDx=0;exitDy=0;entryX=1;entryY=0.75;entryDx=0;entryDy=0;" parent="1" source="f660KYOJlbldad9Sg0Wb-13" target="f660KYOJlbldad9Sg0Wb-47" edge="1">
          <mxGeometry relative="1" as="geometry">
            <mxPoint x="475" y="297" as="sourcePoint" />
            <mxPoint x="381" y="287" as="targetPoint" />
          </mxGeometry>
        </mxCell>
        <mxCell id="f660KYOJlbldad9Sg0Wb-55" value="1..n" style="edgeLabel;resizable=0;html=1;align=left;verticalAlign=top;" parent="f660KYOJlbldad9Sg0Wb-54" connectable="0" vertex="1">
          <mxGeometry x="-1" relative="1" as="geometry">
            <mxPoint x="-36" y="-5" as="offset" />
          </mxGeometry>
        </mxCell>
        <mxCell id="f660KYOJlbldad9Sg0Wb-56" value="1" style="edgeLabel;resizable=0;html=1;align=right;verticalAlign=top;" parent="f660KYOJlbldad9Sg0Wb-54" connectable="0" vertex="1">
          <mxGeometry x="1" relative="1" as="geometry">
            <mxPoint x="11" y="-23" as="offset" />
          </mxGeometry>
        </mxCell>
        <mxCell id="f660KYOJlbldad9Sg0Wb-57" value="" style="endArrow=none;html=1;endSize=12;startArrow=diamondThin;startSize=14;startFill=0;edgeStyle=orthogonalEdgeStyle;rounded=0;exitX=0.5;exitY=0;exitDx=0;exitDy=0;" parent="1" source="f660KYOJlbldad9Sg0Wb-49" target="f660KYOJlbldad9Sg0Wb-47" edge="1">
          <mxGeometry relative="1" as="geometry">
            <mxPoint x="251" y="261" as="sourcePoint" />
            <mxPoint x="184" y="261" as="targetPoint" />
          </mxGeometry>
        </mxCell>
        <mxCell id="f660KYOJlbldad9Sg0Wb-58" value="1..n" style="edgeLabel;resizable=0;html=1;align=left;verticalAlign=top;" parent="f660KYOJlbldad9Sg0Wb-57" connectable="0" vertex="1">
          <mxGeometry x="-1" relative="1" as="geometry">
            <mxPoint x="-25" y="-31" as="offset" />
          </mxGeometry>
        </mxCell>
        <mxCell id="f660KYOJlbldad9Sg0Wb-59" value="1" style="edgeLabel;resizable=0;html=1;align=right;verticalAlign=top;" parent="f660KYOJlbldad9Sg0Wb-57" connectable="0" vertex="1">
          <mxGeometry x="1" relative="1" as="geometry">
            <mxPoint x="-4" y="-4" as="offset" />
          </mxGeometry>
        </mxCell>
        <mxCell id="f660KYOJlbldad9Sg0Wb-60" value="&amp;lt;&amp;lt;objeto de valor&amp;gt;&amp;gt;&lt;br&gt;&amp;lt;&amp;lt;enum&amp;gt;&amp;gt;&lt;br&gt;&lt;font style=&quot;font-size: 14px;&quot;&gt;Sexo&lt;/font&gt;" style="swimlane;fontStyle=0;childLayout=stackLayout;horizontal=1;startSize=47;fillColor=#647687;horizontalStack=0;resizeParent=1;resizeParentMax=0;resizeLast=0;collapsible=1;marginBottom=0;whiteSpace=wrap;html=1;fontColor=#ffffff;strokeColor=#314354;" parent="1" vertex="1">
          <mxGeometry x="660" y="220" width="140" height="99" as="geometry" />
        </mxCell>
        <mxCell id="f660KYOJlbldad9Sg0Wb-61" value="&lt;div&gt;- M: Enum&lt;/div&gt;" style="text;strokeColor=none;fillColor=none;align=left;verticalAlign=top;spacingLeft=4;spacingRight=4;overflow=hidden;rotatable=0;points=[[0,0.5],[1,0.5]];portConstraint=eastwest;whiteSpace=wrap;html=1;" parent="f660KYOJlbldad9Sg0Wb-60" vertex="1">
          <mxGeometry y="47" width="140" height="26" as="geometry" />
        </mxCell>
        <mxCell id="f660KYOJlbldad9Sg0Wb-62" value="&lt;div&gt;- F: Enum&lt;/div&gt;" style="text;strokeColor=none;fillColor=none;align=left;verticalAlign=top;spacingLeft=4;spacingRight=4;overflow=hidden;rotatable=0;points=[[0,0.5],[1,0.5]];portConstraint=eastwest;whiteSpace=wrap;html=1;" parent="f660KYOJlbldad9Sg0Wb-60" vertex="1">
          <mxGeometry y="73" width="140" height="26" as="geometry" />
        </mxCell>
        <mxCell id="f660KYOJlbldad9Sg0Wb-63" value="" style="endArrow=none;html=1;endSize=12;startArrow=diamondThin;startSize=14;startFill=0;edgeStyle=orthogonalEdgeStyle;rounded=0;exitX=1;exitY=0.5;exitDx=0;exitDy=0;entryX=0;entryY=0.5;entryDx=0;entryDy=0;" parent="1" source="f660KYOJlbldad9Sg0Wb-19" target="f660KYOJlbldad9Sg0Wb-61" edge="1">
          <mxGeometry relative="1" as="geometry">
            <mxPoint x="545" y="414" as="sourcePoint" />
            <mxPoint x="545" y="476" as="targetPoint" />
          </mxGeometry>
        </mxCell>
        <mxCell id="f660KYOJlbldad9Sg0Wb-64" value="1..n" style="edgeLabel;resizable=0;html=1;align=left;verticalAlign=top;" parent="f660KYOJlbldad9Sg0Wb-63" connectable="0" vertex="1">
          <mxGeometry x="-1" relative="1" as="geometry">
            <mxPoint x="6" y="-27" as="offset" />
          </mxGeometry>
        </mxCell>
        <mxCell id="f660KYOJlbldad9Sg0Wb-65" value="1" style="edgeLabel;resizable=0;html=1;align=right;verticalAlign=top;" parent="f660KYOJlbldad9Sg0Wb-63" connectable="0" vertex="1">
          <mxGeometry x="1" relative="1" as="geometry">
            <mxPoint x="-2" y="-22" as="offset" />
          </mxGeometry>
        </mxCell>
        <mxCell id="f660KYOJlbldad9Sg0Wb-66" value="Contexto AjudÃ¢ncia" style="swimlane;startSize=20;horizontal=0;childLayout=treeLayout;horizontalTree=1;sortEdges=1;resizable=1;containerType=tree;fontSize=16;fillColor=#003366;strokeColor=#10739e;fontColor=#FFFFFF;" parent="1" vertex="1">
          <mxGeometry x="4" y="30" width="816" height="510" as="geometry">
            <mxRectangle x="4" y="30" width="40" height="130" as="alternateBounds" />
          </mxGeometry>
        </mxCell>
        <mxCell id="jXGBZtoQWdus-dMjmi3M-2" value="&lt;font style=&quot;font-size: 14px;&quot;&gt;&lt;div style=&quot;font-size: 12px;&quot;&gt;&amp;lt;&amp;lt;entidade&amp;gt;&amp;gt;&lt;/div&gt;HistoricoAlteracao&lt;/font&gt;" style="swimlane;fontStyle=0;childLayout=stackLayout;horizontal=1;startSize=40;fillColor=#647687;horizontalStack=0;resizeParent=1;resizeParentMax=0;resizeLast=0;collapsible=1;marginBottom=0;whiteSpace=wrap;html=1;fontColor=#ffffff;strokeColor=#314354;" vertex="1" parent="1">
          <mxGeometry x="231" y="360" width="140" height="144" as="geometry">
            <mxRectangle x="50" y="430" width="90" height="30" as="alternateBounds" />
          </mxGeometry>
        </mxCell>
        <mxCell id="jXGBZtoQWdus-dMjmi3M-3" value="- id: Long &amp;lt;&amp;lt;id&amp;gt;&amp;gt;" style="text;strokeColor=none;fillColor=none;align=left;verticalAlign=top;spacingLeft=4;spacingRight=4;overflow=hidden;rotatable=0;points=[[0,0.5],[1,0.5]];portConstraint=eastwest;whiteSpace=wrap;html=1;" vertex="1" parent="jXGBZtoQWdus-dMjmi3M-2">
          <mxGeometry y="40" width="140" height="26" as="geometry" />
        </mxCell>
        <mxCell id="jXGBZtoQWdus-dMjmi3M-4" value="- data: Date" style="text;strokeColor=none;fillColor=none;align=left;verticalAlign=top;spacingLeft=4;spacingRight=4;overflow=hidden;rotatable=0;points=[[0,0.5],[1,0.5]];portConstraint=eastwest;whiteSpace=wrap;html=1;" vertex="1" parent="jXGBZtoQWdus-dMjmi3M-2">
          <mxGeometry y="66" width="140" height="26" as="geometry" />
        </mxCell>
        <mxCell id="jXGBZtoQWdus-dMjmi3M-11" value="- estadoAnterior: Militar" style="text;strokeColor=none;fillColor=none;align=left;verticalAlign=top;spacingLeft=4;spacingRight=4;overflow=hidden;rotatable=0;points=[[0,0.5],[1,0.5]];portConstraint=eastwest;whiteSpace=wrap;html=1;" vertex="1" parent="jXGBZtoQWdus-dMjmi3M-2">
          <mxGeometry y="92" width="140" height="26" as="geometry" />
        </mxCell>
        <mxCell id="jXGBZtoQWdus-dMjmi3M-6" value="- resposavel: Militar" style="text;strokeColor=none;fillColor=none;align=left;verticalAlign=top;spacingLeft=4;spacingRight=4;overflow=hidden;rotatable=0;points=[[0,0.5],[1,0.5]];portConstraint=eastwest;whiteSpace=wrap;html=1;" vertex="1" parent="jXGBZtoQWdus-dMjmi3M-2">
          <mxGeometry y="118" width="140" height="26" as="geometry" />
        </mxCell>
        <mxCell id="jXGBZtoQWdus-dMjmi3M-7" value="" style="endArrow=none;html=1;endSize=12;startArrow=diamondThin;startSize=14;startFill=0;edgeStyle=orthogonalEdgeStyle;rounded=0;exitX=1;exitY=0.5;exitDx=0;exitDy=0;entryX=0;entryY=0.5;entryDx=0;entryDy=0;" edge="1" parent="1" source="jXGBZtoQWdus-dMjmi3M-4" target="f660KYOJlbldad9Sg0Wb-21">
          <mxGeometry relative="1" as="geometry">
            <mxPoint x="124" y="360" as="sourcePoint" />
            <mxPoint x="124" y="240" as="targetPoint" />
          </mxGeometry>
        </mxCell>
        <mxCell id="jXGBZtoQWdus-dMjmi3M-8" value="1..n" style="edgeLabel;resizable=0;html=1;align=left;verticalAlign=top;" connectable="0" vertex="1" parent="jXGBZtoQWdus-dMjmi3M-7">
          <mxGeometry x="-1" relative="1" as="geometry">
            <mxPoint x="9" y="-26" as="offset" />
          </mxGeometry>
        </mxCell>
        <mxCell id="jXGBZtoQWdus-dMjmi3M-9" value="2" style="edgeLabel;resizable=0;html=1;align=right;verticalAlign=top;" connectable="0" vertex="1" parent="jXGBZtoQWdus-dMjmi3M-7">
          <mxGeometry x="1" relative="1" as="geometry">
            <mxPoint x="-3" y="-26" as="offset" />
          </mxGeometry>
        </mxCell>
      </root>
    </mxGraphModel>
  </diagram>
</mxfile>
